# File created by Blade
# Date/Time:  Tue Jan 27 17:21:46 2015
#---------------------------------------------------------
:version 1.10
:name HOM
:units
  mass 1.0
  length 1.000000
  angle deg
:documentation
     Acclaim Skeleton File
:root
   axis xyz
   order TX TY TZ RX RY RZ
   position 0.000000 0.000000 0.000000
   orientation 0 0 0
:bonedata
   begin
      id 1
      name Spine_dum
      direction 0.000000 1.000000 0.000000
      length 7.539951
      axis 0.0 0.0 0.0 xyz
   end
   begin
      id 2
      name LeftUpLeg_dum
      direction 1.000000 0.000000 0.000000
      length 3.345476
      axis 0.0 0.0 0.0 xyz
   end
   begin
      id 3
      name RightUpLeg_dum
      direction -1.000000 0.000000 0.000000
      length 3.345476
      axis 0.0 0.0 0.0 xyz
   end
   begin
      id 4
      name Spine
      direction 0.000000 1.000000 0.000000
      length 0.000000
      axis 0.0 0.0 0.0 xyz
      dof rx ry rz
   end
   begin
      id 5
      name Spine_dum1
      direction 0.000000 1.000000 0.000000
      length 15.093809
      axis 0.0 0.0 0.0 xyz
   end
   begin
      id 6
      name Spine_dum2
      direction 0.000000 1.000000 0.000000
      length 9.738928
      axis 0.0 0.0 0.0 xyz
   end
   begin
      id 7
      name Spine_dum3
      direction 0.000000 1.000000 0.000000
      length 9.738928
      axis 0.0 0.0 0.0 xyz
   end
   begin
      id 8
      name Head
      direction 0.000000 1.000000 0.000000
      length 4.527550
      axis 0.0 0.0 0.0 xyz
      dof rx ry rz
   end
   begin
      id 9
      name LeftShoulder
      direction 1.000000 0.000000 0.000000
      length 7.084015
      axis 0.0 0.0 -90.0 xyz
      dof rx ry rz
   end
   begin
      id 10
      name LeftArm
      direction 1.000000 0.000000 0.000000
      length 10.259319
      axis 0.0 0.0 -90.0 xyz
      dof rx ry rz
   end
   begin
      id 11
      name LeftForeArm
      direction 1.000000 0.000000 0.000000
      length 9.896984
      axis 0.0 0.0 -90.0 xyz
      dof ry rz rx
   end
   begin
      id 12
      name LeftHand
      direction 0.000000 0.000000 0.000000
      length 0.000000
      axis 0.0 0.0 -90.0 xyz
      dof rx ry rz
   end
   begin
      id 13
      name LeftHand_dum1
      direction 0.000000 0.000000 0.000000
      length 0.000000
      axis 0.0 0.0 -90.0 xyz
   end
   begin
      id 14
      name LeftHand_dum2
      direction 1.000000 0.000000 0.000000
      length 3.937000
      axis 0.0 0.0 -90.0 xyz
   end
   begin
      id 15
      name LeftHandThumb1
      direction 0.000000 0.000000 1.000000
      length 3.937000
      axis 0.0 0.0 -90.0 xyz
      dof rx rz ry
   end
   begin
      id 16
      name RightShoulder
      direction -1.000000 0.000000 0.000000
      length 7.084015
      axis 0.0 0.0 90.0 xyz
      dof rx ry rz
   end
   begin
      id 17
      name RightArm
      direction -1.000000 0.000000 0.000000
      length 10.259319
      axis 0.0 0.0 90.0 xyz
      dof rx ry rz
   end
   begin
      id 18
      name RightForeArm
      direction -1.000000 0.000000 0.000000
      length 9.896984
      axis 0.0 0.0 90.0 xyz
      dof ry rz rx
   end
   begin
      id 19
      name RightHand
      direction 0.000000 0.000000 0.000000
      length 0.000000
      axis 0.0 0.0 90.0 xyz
      dof rx ry rz
   end
   begin
      id 20
      name RightHand_dum1
      direction 0.000000 0.000000 0.000000
      length 0.000000
      axis 0.0 0.0 90.0 xyz
   end
   begin
      id 21
      name RightHand_dum2
      direction -1.000000 0.000000 0.000000
      length 3.937000
      axis 0.0 0.0 90.0 xyz
   end
   begin
      id 22
      name RightHandThumb1
      direction 0.000000 0.000000 1.000000
      length 3.937000
      axis 0.0 0.0 90.0 xyz
      dof rx rz ry
   end
   begin
      id 23
      name LeftUpLeg
      direction 0.000000 -1.000000 0.000000
      length 19.114733
      axis 0.0 0.0 0.0 xyz
      dof rx ry rz
   end
   begin
      id 24
      name LeftLeg
      direction 0.000000 -1.000000 0.000000
      length 16.045604
      axis 0.0 0.0 0.0 xyz
      dof rx ry rz
   end
   begin
      id 25
      name LeftFoot
      direction 0.000000 -0.258819 0.965926
      length 5.543155
      axis 15.0 0.0 0.0 xyz
      dof rx ry rz
   end
   begin
      id 26
      name LeftToeBase
      direction 0.000000 0.000000 1.000000
      length 2.952750
      axis 0.0 0.0 0.0 xyz
      dof rx ry rz
   end
   begin
      id 27
      name RightUpLeg
      direction 0.000000 -1.000000 0.000000
      length 19.114733
      axis 0.0 0.0 0.0 xyz
      dof rx ry rz
   end
   begin
      id 28
      name RightLeg
      direction 0.000000 -1.000000 0.000000
      length 16.045604
      axis 0.0 0.0 0.0 xyz
      dof rx ry rz
   end
   begin
      id 29
      name RightFoot
      direction 0.000000 -0.258819 0.965926
      length 5.543155
      axis 15.0 0.0 0.0 xyz
      dof rx ry rz
   end
   begin
      id 30
      name RightToeBase
      direction 0.000000 0.000000 1.000000
      length 2.952750
      axis 0.0 0.0 0.0 xyz
      dof rx ry rz
   end
:hierarchy
   begin
      root Spine_dum LeftUpLeg_dum RightUpLeg_dum
      Spine_dum Spine
      LeftUpLeg_dum LeftUpLeg
      RightUpLeg_dum RightUpLeg
      Spine Spine_dum1 Spine_dum2 Spine_dum3
      Spine_dum1 Head
      Spine_dum2 LeftShoulder
      Spine_dum3 RightShoulder
      LeftShoulder LeftArm
      LeftArm LeftForeArm
      LeftForeArm LeftHand
      LeftHand LeftHand_dum1 LeftHand_dum2
      LeftHand_dum1 LeftHandThumb1
      RightShoulder RightArm
      RightArm RightForeArm
      RightForeArm RightHand
      RightHand RightHand_dum1 RightHand_dum2
      RightHand_dum1 RightHandThumb1
      LeftUpLeg LeftLeg
      LeftLeg LeftFoot
      LeftFoot LeftToeBase
      RightUpLeg RightLeg
      RightLeg RightFoot
      RightFoot RightToeBase
   end

# File created by Blade
# Date/Time:  Tue Jan 27 17:21:37 2015
# Frame Rate: 120.000 fps
#------------------------------------------------------
:FULLY-SPECIFIED
:DEGREES
1
root 0.776595 36.973112 1.676965 8.259589 -7.657731 -2.925081
Spine -6.199042 9.034410 0.534199
Head -0.259262 0.709779 1.749041
LeftShoulder -10.018635 -9.471451 17.428071
LeftArm -6.148061 -13.567879 -22.341123
LeftForeArm 17.329565 -0.000000 23.170776
LeftHand -17.337304 -0.000000 7.762069
LeftHandThumb1 -26.253704 0.000000 33.147579
RightShoulder -9.963400 -6.455371 -16.335032
RightArm 5.011509 32.986921 30.698992
RightForeArm 179.469005 -0.000000 22.248564
RightHand 3.512274 -0.000000 4.653461
RightHandThumb1 -24.326973 -0.000000 -32.862282
LeftUpLeg -3.267167 13.730253 5.742431
LeftLeg 6.923006 -0.000000 -0.000000
LeftFoot -18.135675 2.652364 -18.103300
LeftToeBase 14.291778 -0.000000 -0.000000
RightUpLeg -11.275191 -13.352407 1.648675
RightLeg 19.422213 -0.000000 -0.000000
RightFoot -14.695929 -7.551584 5.702258
RightToeBase 0.513069 -0.000000 -0.000000
2
root 0.781061 36.965205 1.630558 8.173808 -8.531455 -2.940509
Spine -5.897159 9.371092 0.490765
Head -0.536132 0.931710 1.780787
LeftShoulder -9.895876 -9.429183 17.409270
LeftArm -7.419907 -14.638715 -22.575252
LeftForeArm 15.422393 -0.000000 24.509835
LeftHand -16.660297 -0.000000 9.243031
LeftHandThumb1 -26.253704 0.000000 33.147579
RightShoulder -9.731491 -6.465077 -16.144714
RightArm 5.679534 32.468052 31.222524
RightForeArm 179.173077 0.000000 22.545664
RightHand 3.441451 -0.000000 4.550814
RightHandThumb1 -24.326973 -0.000000 -32.862282
LeftUpLeg -3.080128 14.058821 5.697054
LeftLeg 6.949700 -0.000000 -0.000000
LeftFoot -18.358542 3.005545 -18.279533
LeftToeBase 14.350810 -0.000000 -0.000000
RightUpLeg -11.825405 -13.392847 1.876061
RightLeg 20.344348 -0.000000 -0.000000
RightFoot -14.798539 -8.016955 5.347838
RightToeBase 0.601300 -0.000000 -0.000000
3
root 0.775128 36.957572 1.592115 8.127357 -9.421382 -2.965192
Spine -5.684617 9.657016 0.411241
Head -0.773703 1.152416 1.927430
LeftShoulder -9.934774 -9.283456 17.390221
LeftArm -8.362646 -15.512783 -22.845250
LeftForeArm 12.821026 0.000000 25.704448
LeftHand -16.528960 -0.000000 11.522942
LeftHandThumb1 -26.253704 0.000000 33.147579
RightShoulder -9.503493 -6.577900 -15.915703
RightArm 6.509284 31.895285 31.823224
RightForeArm 178.739842 -0.000000 22.831581
RightHand 3.373373 -0.000000 4.490943
RightHandThumb1 -24.326973 -0.000000 -32.862282
LeftUpLeg -2.907526 14.355437 5.671500
LeftLeg 6.965899 -0.000000 -0.000000
LeftFoot -18.586089 3.388857 -18.491766
LeftToeBase 14.383510 -0.000000 -0.000000
RightUpLeg -12.361740 -13.374933 2.147061
RightLeg 21.178498 -0.000000 -0.000000
RightFoot -14.886239 -8.602967 5.028795
RightToeBase 0.438120 -0.000000 -0.000000
4
root 0.768614 36.945955 1.557004 7.995272 -10.327819 -2.977859
Spine -5.358114 9.974504 0.341917
Head -1.032669 1.351667 2.027744
LeftShoulder -9.900223 -9.154335 17.347985
LeftArm -9.431923 -16.490423 -23.030637
LeftForeArm 10.681972 0.000000 26.933997
LeftHand -16.116393 -0.000000 13.062527
LeftHandThumb1 -26.253704 0.000000 33.147579
RightShoulder -9.256331 -6.668120 -15.702867
RightArm 7.269521 31.269769 32.354702
RightForeArm 178.189476 -0.000000 23.118620
RightHand 3.216577 -0.000000 4.308748
RightHandThumb1 -24.326973 -0.000000 -32.862282
LeftUpLeg -2.637951 14.652995 5.657754
LeftLeg 6.979886 -0.000000 -0.000000
LeftFoot -18.828090 3.754231 -18.706204
LeftToeBase 14.392139 -0.000000 -0.000000
RightUpLeg -12.781456 -13.447086 2.406541
RightLeg 21.921958 -0.000000 -0.000000
RightFoot -15.004627 -9.129169 4.771815
RightToeBase 0.303344 -0.000000 -0.000000
5
root 0.759846 36.934906 1.517131 7.919137 -11.146598 -2.966361
Spine -5.121589 10.209681 0.229544
Head -1.246726 1.515726 2.134203
LeftShoulder -9.868347 -9.031511 17.291004
LeftArm -10.401791 -17.389927 -23.196599
LeftForeArm 8.627491 -0.000000 28.042704
LeftHand -15.610077 -0.000000 14.907624
LeftHandThumb1 -26.253704 0.000000 33.147579
RightShoulder -9.050457 -6.840213 -15.452091
RightArm 8.120821 30.555567 32.867707
RightForeArm 177.655327 -0.000000 23.379145
RightHand 3.213158 -0.000000 3.893405
RightHandThumb1 -24.326973 -0.000000 -32.862282
LeftUpLeg -2.490959 14.786366 5.615847
LeftLeg 7.070037 -0.000000 -0.000000
LeftFoot -19.106142 4.189378 -18.936537
LeftToeBase 14.402419 -0.000000 -0.000000
RightUpLeg -13.229007 -13.556066 2.681402
RightLeg 22.593378 -0.000000 -0.000000
RightFoot -15.065497 -9.720550 4.604031
RightToeBase 0.048713 -0.000000 -0.000000
6
root 0.749728 36.922120 1.476151 7.782729 -12.031770 -2.933288
Spine -4.817164 10.478748 0.083332
Head -1.413170 1.747359 2.233408
LeftShoulder -9.810597 -8.923363 17.233267
LeftArm -11.391596 -18.344514 -23.318913
LeftForeArm 6.409381 -0.000000 29.153462
LeftHand -14.709118 -0.000000 16.364885
LeftHandThumb1 -26.253704 0.000000 33.147579
RightShoulder -8.773401 -6.974031 -15.190568
RightArm 8.911159 29.789366 33.316959
RightForeArm 177.012143 -0.000000 23.642917
RightHand 3.146030 -0.000000 3.831761
RightHandThumb1 -24.326973 -0.000000 -32.862282
LeftUpLeg -2.263901 14.901064 5.559744
LeftLeg 7.132441 -0.000000 -0.000000
LeftFoot -19.410013 4.697208 -19.193296
LeftToeBase 14.433191 -0.000000 -0.000000
RightUpLeg -13.584580 -13.637822 2.931171
RightLeg 23.169703 -0.000000 -0.000000
RightFoot -15.175858 -10.243970 4.556369
RightToeBase 0.026609 -0.000000 -0.000000
7
root 0.733803 36.908493 1.441629 7.651715 -12.883826 -2.906829
Spine -4.538251 10.703977 -0.044912
Head -1.576747 1.934144 2.313793
LeftShoulder -9.838648 -8.725542 17.176671
LeftArm -12.193291 -19.440791 -23.512328
LeftForeArm 4.538396 -0.000000 30.224417
LeftHand -14.273903 0.000000 18.076759
LeftHandThumb1 -26.253704 0.000000 33.147579
RightShoulder -8.540569 -7.191809 -14.929214
RightArm 9.787835 28.931479 33.757250
RightForeArm 176.410502 -0.000000 23.885099
RightHand 2.858851 -0.000000 3.422060
RightHandThumb1 -24.326973 -0.000000 -32.862282
LeftUpLeg -2.044979 14.950808 5.516091
LeftLeg 7.215795 -0.000000 -0.000000
LeftFoot -19.687182 5.269165 -19.300596
LeftToeBase 14.239342 -0.000000 -0.000000
RightUpLeg -13.876069 -13.754212 3.202186
RightLeg 23.626865 -0.000000 -0.000000
RightFoot -15.287708 -10.841402 4.541586
RightToeBase 0.074303 -0.000000 -0.000000
8
root 0.715467 36.893990 1.414332 7.459624 -13.702136 -2.875913
Spine -4.210577 10.928766 -0.139341
Head -1.665268 2.100366 2.329648
LeftShoulder -9.798214 -8.666285 17.053876
LeftArm -13.037062 -20.390040 -23.602377
LeftForeArm 3.020982 -0.000000 31.278839
LeftHand -13.934987 -0.000000 19.930916
LeftHandThumb1 -26.253704 0.000000 33.147579
RightShoulder -8.301173 -7.372377 -14.731945
RightArm 10.548826 27.963313 34.163238
RightForeArm 175.757131 -0.000000 24.203391
RightHand 2.971011 0.000000 3.217492
RightHandThumb1 -24.326973 -0.000000 -32.862282
LeftUpLeg -1.777385 15.010998 5.493106
LeftLeg 7.333763 -0.000000 -0.000000
LeftFoot -20.011633 5.740782 -19.560123
LeftToeBase 14.226343 -0.000000 -0.000000
RightUpLeg -14.014433 -13.896383 3.451611
RightLeg 23.911509 -0.000000 -0.000000
RightFoot -15.381810 -11.324550 4.720508
RightToeBase 0.036659 -0.000000 -0.000000
9
root 0.692644 36.879899 1.385235 7.382562 -14.465256 -2.831044
Spine -4.072151 11.094889 -0.305762
Head -1.703717 2.198365 2.390802
LeftShoulder -9.815454 -8.503757 16.968189
LeftArm -13.711508 -21.350054 -23.722442
LeftForeArm 1.541483 -0.000000 32.263081
LeftHand -13.611776 -0.000000 21.752523
LeftHandThumb1 -26.253704 0.000000 33.147579
RightShoulder -8.133304 -7.681906 -14.424894
RightArm 11.468582 26.972063 34.509438
RightForeArm 175.082152 -0.000000 24.452125
RightHand 2.899273 -0.000000 2.843706
RightHandThumb1 -24.326973 -0.000000 -32.862282
LeftUpLeg -1.657301 14.869135 5.433912
LeftLeg 7.475632 -0.000000 -0.000000
LeftFoot -20.459191 6.339851 -20.066408
LeftToeBase 14.422991 -0.000000 -0.000000
RightUpLeg -14.199877 -14.038863 3.727621
RightLeg 24.038298 -0.000000 -0.000000
RightFoot -15.497408 -11.929634 4.754086
RightToeBase 0.183012 -0.000000 -0.000000
10
root 0.665727 36.865428 1.362522 7.252141 -15.176411 -2.756452
Spine -3.913037 11.196670 -0.488496
Head -1.668166 2.331283 2.417859
LeftShoulder -9.833891 -8.388960 16.866978
LeftArm -14.371651 -22.179360 -23.786250
LeftForeArm -0.015463 -0.000000 33.224972
LeftHand -13.086895 -0.000000 23.377128
LeftHandThumb1 -26.253704 0.000000 33.147579
RightShoulder -7.901502 -7.975663 -14.161992
RightArm 12.262720 25.928001 34.813259
RightForeArm 174.179556 0.000000 24.778466
RightHand 2.815455 -0.000000 2.317362
RightHandThumb1 -24.326973 -0.000000 -32.862282
LeftUpLeg -1.496844 14.759390 5.364030
LeftLeg 7.629288 -0.000000 -0.000000
LeftFoot -20.815427 6.894500 -20.380035
LeftToeBase 14.439457 -0.000000 -0.000000
RightUpLeg -14.284466 -14.305090 3.958229
RightLeg 24.091122 -0.000000 -0.000000
RightFoot -15.612354 -12.439912 4.597520
RightToeBase 0.405980 -0.000000 -0.000000
11
root 0.632554 36.849952 1.348646 7.043628 -15.840353 -2.690582
Spine -3.690917 11.302872 -0.648367
Head -1.537354 2.382907 2.505792
LeftShoulder -9.786691 -8.299972 16.765919
LeftArm -15.046840 -23.068473 -23.821209
LeftForeArm -1.421464 0.000000 34.231036
LeftHand -12.617604 -0.000000 24.771700
LeftHandThumb1 -26.253704 0.000000 33.147579
RightShoulder -7.749235 -8.310771 -13.880623
RightArm 13.151462 24.858106 35.122360
RightForeArm 173.443095 -0.000000 25.022954
RightHand 2.689821 -0.000000 1.805270
RightHandThumb1 -24.326973 -0.000000 -32.862282
LeftUpLeg -1.253651 14.683538 5.332769
LeftLeg 7.792531 -0.000000 -0.000000
LeftFoot -21.156046 7.394606 -20.626746
LeftToeBase 14.396094 -0.000000 -0.000000
RightUpLeg -14.184640 -14.587848 4.157781
RightLeg 23.985270 -0.000000 -0.000000
RightFoot -15.715407 -12.860156 4.485797
RightToeBase 0.496203 -0.000000 -0.000000
12
root 0.596021 36.835445 1.332495 6.897192 -16.477951 -2.614175
Spine -3.575383 11.364246 -0.824449
Head -1.330596 2.434098 2.552313
LeftShoulder -9.765368 -8.213502 16.646746
LeftArm -15.659017 -23.865626 -23.797092
LeftForeArm -2.799791 -0.000000 35.200849
LeftHand -12.247498 -0.000000 26.493022
LeftHandThumb1 -26.253704 0.000000 33.147579
RightShoulder -7.599629 -8.656009 -13.625204
RightArm 14.040370 23.687700 35.414927
RightForeArm 172.817940 0.000000 25.284796
RightHand 2.482053 0.000000 1.342149
RightHandThumb1 -24.326973 -0.000000 -32.862282
LeftUpLeg -1.096718 14.587810 5.282801
LeftLeg 7.978942 -0.000000 -0.000000
LeftFoot -21.478223 7.893976 -20.868293
LeftToeBase 14.352649 -0.000000 -0.000000
RightUpLeg -14.098974 -14.859852 4.344060
RightLeg 23.799927 -0.000000 -0.000000
RightFoot -15.819098 -13.278290 4.149141
RightToeBase 0.691313 -0.000000 -0.000000
13
root 0.553580 36.822292 1.325937 6.669019 -17.017387 -2.549807
Spine -3.369466 11.369118 -0.950537
Head -1.205553 2.412174 2.490299
LeftShoulder -9.731158 -8.155053 16.479652
LeftArm -16.241701 -24.689946 -23.712737
LeftForeArm -3.889712 0.000000 36.220953
LeftHand -12.023677 0.000000 28.359823
LeftHandThumb1 -26.253704 0.000000 33.147579
RightShoulder -7.391818 -8.908686 -13.429511
RightArm 14.695136 22.598410 35.723804
RightForeArm 172.117767 -0.000000 25.685240
RightHand 2.445146 -0.000000 0.903133
RightHandThumb1 -24.326973 -0.000000 -32.862282
LeftUpLeg -0.864184 14.417667 5.274612
LeftLeg 8.179409 -0.000000 -0.000000
LeftFoot -21.800351 8.407291 -21.067836
LeftToeBase 14.317460 -0.000000 -0.000000
RightUpLeg -13.823979 -15.259111 4.496228
RightLeg 23.463915 -0.000000 -0.000000
RightFoot -15.899911 -13.522185 3.807966
RightToeBase 0.800369 -0.000000 -0.000000
